<?xml version="1.0" encoding="UTF-8"?>
<svg width="126px" height="50px" viewBox="0 0 126 50" version="1.1" xmlns="http://www.w3.org/2000/svg" xmlns:xlink="http://www.w3.org/1999/xlink">
    <!-- Generator: Sketch 54.1 (76490) - https://sketchapp.com -->
    <title>logo 2iOS</title>
    <desc>Created with Sketch.</desc>
    <g id="logo-2" stroke="none" stroke-width="1" fill="none" fill-rule="evenodd">
        <g id="logo-small-black" fill-rule="nonzero">
            <g id="shape">
                <path d="M80.3768833,18.8150831 L83.5907371,26.8696761 L86.9754692,18.8150831 L90.1610786,26.8696761 L93.547929,18.8150831 L95.5702243,18.8150831 L90.1123571,31.2145428 L86.9073297,23.0219674 L83.6087429,31.2145428 L78.3542349,18.8150831 L80.3768833,18.8150831 Z M103.904637,24.4510512 L104.497062,24.4510512 C106.260569,24.4510512 107.142499,23.7811517 107.142499,22.4395973 C107.142499,21.1840625 106.284577,20.5562951 104.568732,20.5562951 L103.904637,20.5562951 L103.904637,24.4510512 Z M106.223498,25.8586124 L110.134634,31.2146481 L107.856022,31.2146481 L104.241098,26.0657616 L103.904637,26.0657616 L103.904284,31.2146481 L102.041922,31.2146481 L102.042276,18.8148374 L104.224504,18.8148374 C105.855263,18.8148374 107.033405,19.1195925 107.757872,19.7291027 C108.557894,20.4074285 108.957551,21.3034366 108.957551,22.4164247 C108.957551,23.2857491 108.706883,24.0328906 108.206251,24.6578493 C107.704914,25.283159 107.04435,25.6837645 106.223498,25.8586124 Z M118.67223,23.8369767 L123.475888,18.8148374 L125.962096,18.8148374 L120.383484,24.4966942 L125.99493,31.2146481 L123.500954,31.2146481 L119.056353,25.7532823 L118.67223,26.1342262 L118.67223,31.2146481 L116.809868,31.2146481 L116.809162,18.8148374 L118.671524,18.8148374 L118.67223,23.8369767 Z" id="Combined-Shape" fill="#4FBA9A"></path>
                <path d="M6.16362289,29.2822254 L6.16362289,31.1483237 L0,31.1483237 L0,18.748864 L1.86236171,18.748864 L1.86236171,24.592227 L6.01110341,24.592227 L6.01110341,26.3333336 L1.86236171,26.3333336 L1.86236171,29.2822254 L6.16362289,29.2822254 Z M15.3496029,25.5123557 L15.3496029,29.4071117 L16.0133451,29.4071117 C17.7295423,29.4071117 18.5871113,28.7793443 18.5871113,27.5238095 C18.5871113,26.1822551 17.7051815,25.5123557 15.941675,25.5123557 L15.3496029,25.5123557 Z M17.6684639,24.1047944 C18.4889622,24.2796424 19.1495269,24.6802479 19.6512171,25.3055576 C20.1518482,25.9305162 20.4025168,26.6776577 20.4025168,27.5469821 C20.4025168,28.6599702 20.0025062,29.5559783 19.2028381,30.2343042 C18.4780175,30.8438143 17.3002282,31.1485694 15.6694701,31.1485694 L13.4872412,31.1485694 L13.4872412,18.7487587 L15.3496029,18.7487587 L15.3496029,23.8976452 L15.6860637,23.8976452 L19.3045177,18.7487587 L21.5827775,18.7487587 L17.6684639,24.1047944 Z M34.7467268,23.4702156 L30.9976426,23.4702156 L32.9157869,27.6447987 L34.7467268,23.4702156 Z M35.5064997,21.7301623 L36.800797,18.7489693 L38.8400389,18.7489693 L32.871302,31.148429 L26.8411337,18.7489693 L28.8478946,18.7489693 L30.2223352,21.7301623 L35.5064997,21.7301623 Z M44.8613456,18.748864 L46.7883163,18.748864 L48.1150945,26.1662098 L51.6392831,18.748864 L55.3177564,26.1581345 L56.5086087,18.748864 L58.4186327,18.748864 L55.9998574,31.1483237 L51.6957718,22.4059252 L47.5413812,31.1483237 L44.8613456,18.748864 Z M72.4557914,29.2822254 L72.4557914,31.1483237 L65.6446668,31.1483237 L65.6446668,18.748864 L72.4557914,18.748864 L72.4557914,20.4899706 L67.5070285,20.4899706 L67.5070285,24.592227 L72.3117452,24.592227 L72.3117452,26.3333336 L67.5070285,26.3333336 L67.5070285,29.2822254 L72.4557914,29.2822254 Z" id="Combined-Shape" fill="#4A4A4A" transform="translate(36.227896, 24.948664) scale(1, -1) translate(-36.227896, -24.948664) "></path>
                <path d="M72.8266397,39.8829975 L72.8266397,49.5466833 L0.471327573,49.5466833 L0.471327573,39.8829975 L2.78453969,39.8829975 L2.78453969,47.029996 L70.5148398,47.029996 L70.5148398,39.8829975 L72.8266397,39.8829975 Z M72.8266397,9.66368579 L70.5148398,9.66368579 L70.5148398,2.51668725 L2.78453969,2.51668725 L2.78453969,9.66368579 L0.471327573,9.66368579 L0.471327573,0 L72.8266397,0 L72.8266397,9.66368579 Z" id="Combined-Shape" fill="#4A4A4A"></path>
            </g>
        </g>
    </g>
</svg>
