<?xml version="1.0" encoding="UTF-8"?>
<svg width="40px" height="40px" viewBox="0 0 40 40" version="1.1" xmlns="http://www.w3.org/2000/svg" xmlns:xlink="http://www.w3.org/1999/xlink">
    <!-- Generator: Sketch 54.1 (76490) - https://sketchapp.com -->
    <title>icon / articleiOS</title>
    <desc>Created with Sketch.</desc>
    <g id="icon-/-article" stroke="none" stroke-width="1" fill="none" fill-rule="evenodd">
        <g id="icon---blog">
            <path d="M8.8,0 L8.8,2 L2,2 L2,38 L8.8,38 L8.8,40 L0,40 L0,0 L8.8,0 Z M31.2,0 L40,0 L40,40 L31.2,40 L31.2,38 L38,38 L38,2 L31.2,2 L31.2,0 Z" id="Combined-Shape" fill="#FFFFFF" fill-rule="nonzero"></path>
            <g id="shape" transform="translate(12.000000, 12.800000)" stroke="#FFFFFF" stroke-linecap="round" stroke-linejoin="round" stroke-width="2">
                <path d="M0,0 L4.8,0 C6.5673112,0 8,1.4326888 8,3.2 L8,14.4 C8,13.0745166 6.9254834,12 5.6,12 L0,12 L0,0 Z" id="Path"></path>
                <path d="M16,0 L11.2,0 C9.4326888,0 8,1.4326888 8,3.2 L8,14.4 C8,13.0745166 9.0745166,12 10.4,12 L16,12 L16,0 Z" id="Path"></path>
            </g>
        </g>
    </g>
</svg>