<?xml version="1.0" encoding="UTF-8"?>
<svg width="40px" height="40px" viewBox="0 0 40 40" version="1.1" xmlns="http://www.w3.org/2000/svg" xmlns:xlink="http://www.w3.org/1999/xlink">
    <!-- Generator: Sketch 54.1 (76490) - https://sketchapp.com -->
    <title>icon / audio 2iOS</title>
    <desc>Created with Sketch.</desc>
    <g id="icon-/-audio-2" stroke="none" stroke-width="1" fill="none" fill-rule="evenodd">
        <g id="icon---mic">
            <path d="M8.8,0 L8.8,2 L2,2 L2,38 L8.8,38 L8.8,40 L0,40 L0,0 L8.8,0 Z M31.2,0 L40,0 L40,40 L31.2,40 L31.2,38 L38,38 L38,2 L31.2,2 L31.2,0 Z" id="Combined-Shape" fill="#ffffff" fill-rule="nonzero"></path>
            <g id="shape" transform="translate(15.000000, 12.000000)" stroke="#ffffff" stroke-linecap="round" stroke-linejoin="round" stroke-width="2">
                <path d="M5,1.54465812e-16 C3.81653268,-1.54465812e-16 2.85714286,0.934362261 2.85714286,2.08695652 L2.85714286,7.65217391 C2.85714286,8.80476817 3.81653268,9.73913043 5,9.73913043 C6.18346732,9.73913043 7.14285714,8.80476817 7.14285714,7.65217391 L7.14285714,2.08695652 C7.14285714,0.934362261 6.18346732,1.54465812e-16 5,1.54465812e-16 Z" id="Path"></path>
                <path d="M10,6.26086957 L10,7.65217391 C9.99999996,10.3415605 7.76142372,12.5217391 5,12.5217391 C2.23857628,12.5217391 4.11484188e-08,10.3415605 -1.77635684e-15,7.65217391 L-1.77635684e-15,6.26086957" id="Path"></path>
                <path d="M5,12.5217391 L5,15.3043478" id="Path"></path>
                <path d="M2.14285714,15.3043478 L7.85714286,15.3043478" id="Path"></path>
            </g>
        </g>
    </g>
</svg>
