<?xml version="1.0" encoding="UTF-8"?>
<svg width="40px" height="40px" viewBox="0 0 40 40" version="1.1" xmlns="http://www.w3.org/2000/svg" xmlns:xlink="http://www.w3.org/1999/xlink">
    <!-- Generator: Sketch 54.1 (76490) - https://sketchapp.com -->
    <title>icon / emailiOS</title>
    <desc>Created with Sketch.</desc>
    <g id="icon-/-email" stroke="none" stroke-width="1" fill="none" fill-rule="evenodd">
        <g id="icon---email">
            <path d="M8.8,0 L8.8,2 L2,2 L2,38 L8.8,38 L8.8,40 L0,40 L0,0 L8.8,0 Z M31.2,0 L40,0 L40,40 L31.2,40 L31.2,38 L38,38 L38,2 L31.2,2 L31.2,0 Z" id="Combined-Shape" fill="#4A4A4A" fill-rule="nonzero"></path>
            <g id="shape" transform="translate(12.000000, 13.600000)" stroke="#4A4A4A" stroke-linecap="round" stroke-linejoin="round" stroke-width="2">
                <path d="M1.6,0 L14.4,0 C15.28,0 16,0.72 16,1.6 L16,11.2 C16,12.08 15.28,12.8 14.4,12.8 L1.6,12.8 C0.72,12.8 0,12.08 0,11.2 L0,1.6 C0,0.72 0.72,0 1.6,0 Z" id="Path"></path>
                <polyline id="Path" points="16 1.6 8 7.2 0 1.6"></polyline>
            </g>
        </g>
    </g>
</svg>