<?xml version="1.0" encoding="UTF-8"?>
<svg width="40px" height="40px" viewBox="0 0 40 40" version="1.1" xmlns="http://www.w3.org/2000/svg" xmlns:xlink="http://www.w3.org/1999/xlink">
    <!-- Generator: Sketch 54.1 (76490) - https://sketchapp.com -->
    <title>icon / passwordiOS</title>
    <desc>Created with Sketch.</desc>
    <g id="icon-/-password" stroke="none" stroke-width="1" fill="none" fill-rule="evenodd">
        <g id="icon---email">
            <path d="M8.8,0 L8.8,2 L2,2 L2,38 L8.8,38 L8.8,40 L0,40 L0,0 L8.8,0 Z M31.2,0 L40,0 L40,40 L31.2,40 L31.2,38 L38,38 L38,2 L31.2,2 L31.2,0 Z" id="Combined-Shape" fill="#4A4A4A" fill-rule="nonzero"></path>
            <g id="shape" transform="translate(12.800000, 12.000000)" stroke="#4A4A4A" stroke-linecap="round" stroke-linejoin="round" stroke-width="2">
                <rect id="Rectangle" x="0" y="7.2" width="14.4" height="8.8" rx="2"></rect>
                <path d="M3.2,7.2 L3.2,4 C3.2,1.790861 4.990861,1.24344979e-15 7.2,8.8817842e-16 C9.409139,1.77635684e-16 11.2,1.790861 11.2,4 L11.2,7.2" id="Path"></path>
            </g>
        </g>
    </g>
</svg>