<?xml version="1.0" encoding="UTF-8"?>
<svg width="40px" height="40px" viewBox="0 0 40 40" version="1.1" xmlns="http://www.w3.org/2000/svg" xmlns:xlink="http://www.w3.org/1999/xlink">
    <!-- Generator: Sketch 54.1 (76490) - https://sketchapp.com -->
    <title>icon / profileiOS</title>
    <desc>Created with Sketch.</desc>
    <g id="icon-/-profile" stroke="none" stroke-width="1" fill="none" fill-rule="evenodd">
        <g id="icon---fullname">
            <path d="M8.8,0 L8.8,2 L2,2 L2,38 L8.8,38 L8.8,40 L0,40 L0,0 L8.8,0 Z M31.2,0 L40,0 L40,40 L31.2,40 L31.2,38 L38,38 L38,2 L31.2,2 L31.2,0 Z" id="Combined-Shape" fill="#4A4A4A" fill-rule="nonzero"></path>
            <g id="shape" transform="translate(13.600000, 12.800000)" stroke="#4A4A4A" stroke-linecap="round" stroke-linejoin="round" stroke-width="2">
                <path d="M12.8,14.4 L12.8,12.8 C12.8,11.0326888 11.3673112,9.6 9.6,9.6 L3.2,9.6 C1.4326888,9.6 0,11.0326888 0,12.8 L0,14.4" id="Path"></path>
                <circle id="Oval" cx="6.4" cy="3.2" r="3.2"></circle>
            </g>
        </g>
    </g>
</svg>